<svg xmlns="http://www.w3.org/2000/svg" viewBox="0 0 500 500"><g id="freepik--background-complete--inject-3"><rect y="382.4" width="500" height="0.25" style="fill:#ebebeb"></rect><rect x="416.78" y="398.49" width="33.12" height="0.25" style="fill:#ebebeb"></rect><rect x="322.53" y="401.21" width="8.69" height="0.25" style="fill:#ebebeb"></rect><rect x="396.59" y="389.21" width="19.19" height="0.25" style="fill:#ebebeb"></rect><rect x="52.46" y="390.89" width="43.19" height="0.25" style="fill:#ebebeb"></rect><rect x="104.56" y="390.89" width="6.33" height="0.25" style="fill:#ebebeb"></rect><rect x="131.47" y="395.11" width="93.68" height="0.25" style="fill:#ebebeb"></rect><path d="M237,337.8H43.91a5.71,5.71,0,0,1-5.7-5.71V60.66A5.71,5.71,0,0,1,43.91,55H237a5.71,5.71,0,0,1,5.71,5.71V332.09A5.71,5.71,0,0,1,237,337.8ZM43.91,55.2a5.46,5.46,0,0,0-5.45,5.46V332.09a5.46,5.46,0,0,0,5.45,5.46H237a5.47,5.47,0,0,0,5.46-5.46V60.66A5.47,5.47,0,0,0,237,55.2Z" style="fill:#ebebeb"></path><path d="M453.31,337.8H260.21a5.72,5.72,0,0,1-5.71-5.71V60.66A5.72,5.72,0,0,1,260.21,55h193.1A5.71,5.71,0,0,1,459,60.66V332.09A5.71,5.71,0,0,1,453.31,337.8ZM260.21,55.2a5.47,5.47,0,0,0-5.46,5.46V332.09a5.47,5.47,0,0,0,5.46,5.46h193.1a5.47,5.47,0,0,0,5.46-5.46V60.66a5.47,5.47,0,0,0-5.46-5.46Z" style="fill:#ebebeb"></path><rect x="48.73" y="311.66" width="338.64" height="16.01" transform="translate(124.36 -55.77) rotate(20.29)" style="fill:#e0e0e0"></rect><path d="M93.63,276.52l1.13-1.14a4.92,4.92,0,0,0,2.29,1.78c1.08.4,1.65.2,1.83-.28.55-1.47-4.41-2.16-3.33-5.08.5-1.34,2-2.05,4.23-1.23a5.66,5.66,0,0,1,2.47,1.71l-1.07,1.18a4.8,4.8,0,0,0-2-1.43c-1.08-.4-1.65-.15-1.83.35-.54,1.45,4.41,2.14,3.34,5-.48,1.32-2,2-4.24,1.21A6,6,0,0,1,93.63,276.52Z" style="fill:#f0f0f0"></path><path d="M105,274.35l-2.52-.93.55-1.48,6.86,2.53-.55,1.49-2.52-.93-2.36,6.39-1.82-.68Z" style="fill:#f0f0f0"></path><path d="M108.83,278.55a4.6,4.6,0,1,1,2.81,5.66A4.35,4.35,0,0,1,108.83,278.55Zm6.78,2.5a2.63,2.63,0,1,0-3.4,1.61A2.57,2.57,0,0,0,115.61,281.05Z" style="fill:#f0f0f0"></path><path d="M126.06,283.69c-.65,1.75-2.37,2.36-4.48,1.58l-1.58-.59-.8,2.18-1.83-.68,2.91-7.87,3.41,1.26C125.8,280.34,126.71,281.92,126.06,283.69Zm-1.85-.68c.32-.87,0-1.58-1.17-2l-1.48-.54-1,2.73,1.48.55C123.15,284.16,123.89,283.86,124.21,283Z" style="fill:#f0f0f0"></path><path d="M309.59,356.35l1.12-1.14A5,5,0,0,0,313,357c1.08.4,1.65.2,1.83-.28.54-1.47-4.41-2.16-3.33-5.08.5-1.34,2-2.05,4.23-1.23a5.66,5.66,0,0,1,2.47,1.71l-1.07,1.18a4.8,4.8,0,0,0-1.95-1.43c-1.08-.4-1.65-.15-1.83.35-.54,1.45,4.41,2.14,3.34,5-.49,1.32-2,2-4.24,1.21A6,6,0,0,1,309.59,356.35Z" style="fill:#f0f0f0"></path><path d="M321,354.18l-2.52-.93.55-1.48,6.86,2.53-.55,1.49-2.52-.93-2.36,6.39-1.82-.68Z" style="fill:#f0f0f0"></path><path d="M324.79,358.38A4.6,4.6,0,1,1,327.6,364,4.35,4.35,0,0,1,324.79,358.38Zm6.78,2.5a2.63,2.63,0,1,0-3.4,1.61A2.57,2.57,0,0,0,331.57,360.88Z" style="fill:#f0f0f0"></path><path d="M342,363.52c-.65,1.75-2.37,2.36-4.48,1.58l-1.58-.59-.81,2.18-1.82-.68,2.91-7.87,3.41,1.26C341.75,360.17,342.67,361.75,342,363.52Zm-1.85-.68c.32-.87-.05-1.58-1.17-2l-1.48-.54-1,2.73,1.48.55C339.1,364,339.85,363.69,340.17,362.84Z" style="fill:#f0f0f0"></path><path d="M175.66,298.78l3.58,1.32c2.57.95,3.77,3.16,2.88,5.54s-3.22,3.29-5.79,2.33l-3.58-1.32Zm1.13,7.67a2.61,2.61,0,1,0,1.8-4.89l-1.66-.61-1.81,4.88Z" style="fill:#f0f0f0"></path><path d="M183,306a4.6,4.6,0,1,1,2.8,5.66A4.34,4.34,0,0,1,183,306Zm6.77,2.5a2.63,2.63,0,1,0-3.4,1.61A2.57,2.57,0,0,0,189.78,308.47Z" style="fill:#f0f0f0"></path><path d="M204.86,309.57,202,317.45l-1.49-.56-2.16-6.23-1.77,4.78-1.8-.66,2.91-7.88,1.51.56,2.15,6.23,1.76-4.78Z" style="fill:#f0f0f0"></path><path d="M204.79,314a4.6,4.6,0,1,1,2.8,5.66A4.34,4.34,0,0,1,204.79,314Zm6.77,2.5a2.63,2.63,0,1,0-3.4,1.61A2.57,2.57,0,0,0,211.56,316.52Z" style="fill:#f0f0f0"></path><path d="M217.21,315.82l-2.52-.93.55-1.48,6.86,2.53-.55,1.49L219,316.5l-2.36,6.39-1.83-.68Z" style="fill:#f0f0f0"></path><path d="M230,326.15l-.54,1.46-6.1-2.25,2.92-7.88,5.95,2.2-.54,1.47-4.14-1.53-.64,1.71,3.66,1.35-.52,1.41-3.66-1.35-.67,1.83Z" style="fill:#f0f0f0"></path><path d="M241,323l-2.91,7.87-1.5-.55L234.47,324l-1.76,4.78-1.8-.67,2.91-7.87,1.51.55,2.14,6.23,1.77-4.78Z" style="fill:#f0f0f0"></path><path d="M244,325.73l-2.52-.94.55-1.48,6.87,2.54-.55,1.48-2.52-.93-2.37,6.39-1.82-.67Z" style="fill:#f0f0f0"></path><path d="M253.59,334.88l-.54,1.46L247,334.08l2.91-7.87,5.95,2.2-.54,1.46-4.14-1.53-.63,1.71,3.65,1.35-.52,1.42L250,331.47l-.67,1.82Z" style="fill:#f0f0f0"></path><path d="M259.53,338.73l-.71-2.76-.09,0-1.59-.58-.81,2.19-1.82-.67,2.91-7.88,3.41,1.26c2.1.78,3,2.36,2.36,4.12a2.72,2.72,0,0,1-2.54,1.89l.83,3.18Zm.65-7-1.49-.55-1,2.74,1.48.55c1.12.42,1.87.1,2.19-.75S261.29,332.12,260.18,331.71Z" style="fill:#f0f0f0"></path><rect x="87.19" y="145.28" width="338.64" height="16.01" transform="translate(52.96 -65.49) rotate(16.2)" style="fill:#e0e0e0"></rect><path d="M129.34,119.11l1-1.22a4.93,4.93,0,0,0,2.41,1.61c1.11.33,1.67.09,1.81-.41.44-1.5-4.55-1.83-3.68-4.83.4-1.37,1.83-2.18,4.13-1.52a5.69,5.69,0,0,1,2.59,1.53l-1,1.25a4.6,4.6,0,0,0-2.05-1.28c-1.11-.33-1.65,0-1.8.47-.43,1.49,4.55,1.82,3.69,4.78-.39,1.35-1.84,2.18-4.14,1.51A6,6,0,0,1,129.34,119.11Z" style="fill:#f0f0f0"></path><path d="M140.54,116.14l-2.58-.75.45-1.52,7,2-.44,1.52-2.58-.75-1.9,6.54-1.87-.54Z" style="fill:#f0f0f0"></path><path d="M144.65,120.05a4.6,4.6,0,1,1,3.19,5.45A4.34,4.34,0,0,1,144.65,120.05Zm6.93,2a2.63,2.63,0,1,0-3.27,1.84A2.57,2.57,0,0,0,151.58,122.07Z" style="fill:#f0f0f0"></path><path d="M162.19,124c-.52,1.8-2.19,2.52-4.35,1.9l-1.62-.47-.65,2.22-1.86-.54,2.34-8.07,3.49,1C161.69,120.63,162.72,122.14,162.19,124Zm-1.89-.55c.26-.89-.17-1.57-1.31-1.9l-1.52-.44-.81,2.79,1.52.45C159.32,124.63,160.05,124.28,160.3,123.4Z" style="fill:#f0f0f0"></path><path d="M350.43,183.36l1-1.22a5,5,0,0,0,2.42,1.61c1.11.32,1.66.09,1.81-.41.43-1.51-4.55-1.83-3.68-4.83.39-1.37,1.83-2.19,4.12-1.52a5.54,5.54,0,0,1,2.59,1.52l-1,1.25a4.85,4.85,0,0,0-2.05-1.28c-1.11-.32-1.66,0-1.8.48-.44,1.48,4.55,1.82,3.69,4.78-.39,1.35-1.84,2.17-4.15,1.51A6.07,6.07,0,0,1,350.43,183.36Z" style="fill:#f0f0f0"></path><path d="M361.64,180.38l-2.58-.75.44-1.52,7,2-.44,1.52-2.58-.75-1.9,6.54-1.87-.54Z" style="fill:#f0f0f0"></path><path d="M365.74,184.3a4.6,4.6,0,1,1,3.2,5.45A4.34,4.34,0,0,1,365.74,184.3Zm6.93,2a2.62,2.62,0,1,0-3.27,1.85A2.55,2.55,0,0,0,372.67,186.31Z" style="fill:#f0f0f0"></path><path d="M383.29,188.2c-.53,1.79-2.2,2.52-4.35,1.89l-1.63-.47-.64,2.22-1.87-.54,2.35-8.06,3.48,1C382.79,184.88,383.81,186.39,383.29,188.2Zm-1.89-.55c.26-.89-.17-1.57-1.31-1.91l-1.52-.44-.81,2.8,1.52.44C380.42,188.87,381.14,188.52,381.4,187.65Z" style="fill:#f0f0f0"></path><path d="M212.74,135.47l3.67,1.06c2.63.77,4,2.88,3.27,5.33s-3,3.5-5.62,2.73l-3.66-1.06Zm1.68,7.57a2.61,2.61,0,1,0,1.45-5l-1.71-.5-1.45,5Z" style="fill:#f0f0f0"></path><path d="M220.58,142.12a4.6,4.6,0,1,1,3.2,5.45A4.35,4.35,0,0,1,220.58,142.12Zm6.94,2a2.63,2.63,0,1,0-3.28,1.85A2.57,2.57,0,0,0,227.52,144.13Z" style="fill:#f0f0f0"></path><path d="M242.64,144.16l-2.34,8.06-1.53-.45-2.6-6.06-1.42,4.9-1.84-.54,2.34-8.06,1.54.45,2.59,6.06,1.42-4.9Z" style="fill:#f0f0f0"></path><path d="M242.88,148.6a4.6,4.6,0,1,1,3.2,5.45A4.34,4.34,0,0,1,242.88,148.6Zm6.93,2a2.62,2.62,0,1,0-3.27,1.85A2.55,2.55,0,0,0,249.81,150.61Z" style="fill:#f0f0f0"></path><path d="M255.4,149.51l-2.58-.75.44-1.52,7,2-.44,1.52-2.58-.75-1.9,6.55-1.86-.55Z" style="fill:#f0f0f0"></path><path d="M268.89,158.9l-.44,1.5-6.24-1.81,2.34-8.07,6.09,1.77-.43,1.5L266,152.56l-.51,1.75,3.75,1.09-.43,1.45L265,155.76l-.54,1.87Z" style="fill:#f0f0f0"></path><path d="M279.68,154.92,277.34,163l-1.54-.44-2.59-6.07-1.43,4.9-1.84-.54,2.34-8.06,1.55.45,2.58,6.06,1.43-4.9Z" style="fill:#f0f0f0"></path><path d="M282.82,157.48l-2.58-.75.44-1.52,7,2-.44,1.52-2.58-.75-1.9,6.54-1.87-.54Z" style="fill:#f0f0f0"></path><path d="M293.05,165.92l-.43,1.5-6.25-1.81,2.35-8.07,6.09,1.78-.44,1.49-4.24-1.23-.5,1.75,3.74,1.09-.42,1.45-3.75-1.09-.54,1.87Z" style="fill:#f0f0f0"></path><path d="M299.24,169.35l-.9-2.7-.09,0-1.63-.47L296,168.4l-1.87-.55,2.35-8.06,3.49,1c2.15.62,3.17,2.13,2.65,3.94a2.72,2.72,0,0,1-2.4,2.06l1.06,3.12Zm.15-7-1.52-.45-.82,2.81,1.53.45c1.14.33,1.87,0,2.12-.91S300.53,162.63,299.39,162.3Z" style="fill:#f0f0f0"></path><rect x="76.82" y="346.52" width="338.64" height="16.01" transform="translate(-8.47 6.03) rotate(-1.38)" style="fill:#ebebeb"></rect><path d="M229.67,357.59l.63-1.47a5,5,0,0,0,2.79.8c1.15,0,1.61-.42,1.59-.93,0-1.57-4.89-.38-5-3.5,0-1.42,1.09-2.64,3.47-2.7a5.69,5.69,0,0,1,2.93.68l-.56,1.49a4.78,4.78,0,0,0-2.34-.61c-1.15,0-1.59.47-1.57,1,0,1.55,4.89.36,5,3.45,0,1.4-1.1,2.62-3.5,2.68A6,6,0,0,1,229.67,357.59Z" style="fill:#fff"></path><path d="M239.46,351.37l-2.69.07,0-1.59,7.32-.17,0,1.58-2.69.07.17,6.81-1.95,0Z" style="fill:#fff"></path><path d="M244.55,353.86a4.6,4.6,0,1,1,4.7,4.23A4.35,4.35,0,0,1,244.55,353.86Zm7.22-.17a2.63,2.63,0,1,0-2.56,2.75A2.56,2.56,0,0,0,251.77,353.69Z" style="fill:#fff"></path><path d="M262.45,352.28c.05,1.87-1.33,3.07-3.57,3.12l-1.69,0,.06,2.32-1.95,0-.2-8.39,3.63-.09C261,349.27,262.41,350.4,262.45,352.28Zm-2,.05c0-.92-.64-1.45-1.83-1.42l-1.58,0,.07,2.91,1.58,0C259.92,353.79,260.51,353.24,260.49,352.33Z" style="fill:#fff"></path><path d="M91.5,353.35l3.82-.09c2.74-.06,4.66,1.55,4.73,4.09s-1.79,4.24-4.53,4.31l-3.81.09Zm3.88,6.71a2.61,2.61,0,1,0-.12-5.2l-1.78,0,.13,5.21Z" style="fill:#fff"></path><path d="M101,357.33a4.6,4.6,0,1,1,4.69,4.22A4.35,4.35,0,0,1,101,357.33Zm7.21-.18a2.63,2.63,0,1,0-2.56,2.75A2.55,2.55,0,0,0,108.2,357.15Z" style="fill:#fff"></path><path d="M122.63,352.6l.2,8.4-1.59,0-4.31-5,.12,5.1-1.92,0-.2-8.39,1.61,0,4.29,5-.12-5.1Z" style="fill:#fff"></path><path d="M124.2,356.77a4.6,4.6,0,1,1,4.7,4.23A4.35,4.35,0,0,1,124.2,356.77Zm7.22-.18a2.63,2.63,0,1,0-2.56,2.75A2.56,2.56,0,0,0,131.42,356.59Z" style="fill:#fff"></path><path d="M136.41,353.86l-2.69.06,0-1.58,7.32-.18,0,1.59-2.69.06.16,6.81-1.94.05Z" style="fill:#fff"></path><path d="M152.1,358.73l0,1.56-6.5.16-.2-8.4,6.34-.15,0,1.56-4.41.11,0,1.82,3.9-.09,0,1.51-3.89.09,0,1.94Z" style="fill:#fff"></path><path d="M161.19,351.67l.2,8.4-1.6,0-4.3-5,.12,5.1-1.92,0-.2-8.39,1.61,0,4.29,5-.12-5.1Z" style="fill:#fff"></path><path d="M165,353.17l-2.69.06,0-1.58,7.32-.18,0,1.59-2.69.06.16,6.81-1.94.05Z" style="fill:#fff"></path><path d="M177.26,358.13l0,1.55-6.5.16-.2-8.39,6.34-.15,0,1.55-4.42.11.05,1.82,3.89-.09,0,1.51-3.9.09.05,1.95Z" style="fill:#fff"></path><path d="M184.2,359.52l-1.68-2.3h-.1l-1.69,0,.06,2.34-1.94,0-.2-8.4,3.63-.08c2.24-.06,3.67,1.07,3.72,2.95a2.75,2.75,0,0,1-1.67,2.7l1.95,2.65Zm-2-6.77-1.58,0,.07,2.93,1.58,0c1.19,0,1.77-.6,1.75-1.51S183.4,352.72,182.21,352.75Z" style="fill:#fff"></path><path d="M306.57,348.17l3.81-.09c2.75-.07,4.67,1.54,4.73,4.08s-1.78,4.25-4.52,4.31l-3.82.09Zm3.88,6.71a2.61,2.61,0,1,0-.12-5.2l-1.78,0,.13,5.2Z" style="fill:#fff"></path><path d="M316.05,352.14a4.6,4.6,0,1,1,4.7,4.23A4.35,4.35,0,0,1,316.05,352.14Zm7.22-.17a2.63,2.63,0,1,0-2.56,2.75A2.57,2.57,0,0,0,323.27,352Z" style="fill:#fff"></path><path d="M337.7,347.42l.2,8.39-1.6,0-4.3-5,.12,5.09-1.92.05-.2-8.39,1.6,0,4.3,5-.12-5.09Z" style="fill:#fff"></path><path d="M339.27,351.58a4.6,4.6,0,1,1,4.69,4.23A4.34,4.34,0,0,1,339.27,351.58Zm7.21-.17a2.63,2.63,0,1,0-2.56,2.75A2.55,2.55,0,0,0,346.48,351.41Z" style="fill:#fff"></path><path d="M351.47,348.67l-2.68.07,0-1.59,7.31-.17,0,1.58-2.68.07.16,6.81-1.94,0Z" style="fill:#fff"></path><path d="M367.17,353.55l0,1.56-6.5.15-.2-8.39,6.34-.15,0,1.56-4.42.1,0,1.83,3.89-.1,0,1.51-3.9.1.05,1.94Z" style="fill:#fff"></path><path d="M376.25,346.49l.21,8.39-1.6,0-4.31-5,.13,5.09-1.92.05-.2-8.39,1.6,0,4.3,5-.13-5.09Z" style="fill:#fff"></path><path d="M380,348l-2.68.07,0-1.58,7.31-.18,0,1.58-2.68.07.16,6.81-1.94,0Z" style="fill:#fff"></path><path d="M392.33,352.94l0,1.56-6.5.16-.2-8.4,6.34-.15,0,1.56-4.41.11,0,1.82,3.9-.09,0,1.51-3.9.09.05,1.94Z" style="fill:#fff"></path><path d="M399.26,354.33,397.59,352h-.1l-1.69,0,.06,2.34-1.95,0-.2-8.39,3.63-.09c2.25-.05,3.68,1.08,3.72,3a2.72,2.72,0,0,1-1.66,2.69l2,2.65Zm-2-6.76-1.58,0,.07,2.92,1.59,0c1.18,0,1.77-.59,1.75-1.5S398.46,347.54,397.27,347.57Z" style="fill:#fff"></path><rect x="64.32" y="97.38" width="338.64" height="16.01" transform="translate(-3.06 7.06) rotate(-1.72)" style="fill:#ebebeb"></rect><path d="M102.12,112l.62-1.48a5,5,0,0,0,2.8.79c1.15,0,1.6-.43,1.59-.95,0-1.57-4.9-.34-5-3.46,0-1.43,1.07-2.65,3.46-2.72a5.61,5.61,0,0,1,2.93.66l-.55,1.49a4.76,4.76,0,0,0-2.35-.59c-1.15,0-1.58.48-1.56,1,0,1.54,4.89.33,5,3.41,0,1.4-1.08,2.64-3.48,2.71A6,6,0,0,1,102.12,112Z" style="fill:#fff"></path><path d="M111.88,105.73l-2.69.08,0-1.58,7.31-.22,0,1.58-2.68.08.2,6.81-1.94.06Z" style="fill:#fff"></path><path d="M117,108.19a4.6,4.6,0,1,1,4.72,4.2A4.35,4.35,0,0,1,117,108.19Zm7.22-.21a2.63,2.63,0,1,0-2.55,2.76A2.56,2.56,0,0,0,124.2,108Z" style="fill:#fff"></path><path d="M134.87,106.5c.06,1.87-1.31,3.08-3.55,3.15l-1.69,0,.07,2.31-1.94.06-.25-8.39,3.63-.11C133.38,103.5,134.82,104.62,134.87,106.5Zm-2,.06c0-.92-.64-1.44-1.83-1.41l-1.58,0,.08,2.91,1.59,0C132.35,108,132.94,107.47,132.91,106.56Z" style="fill:#fff"></path><path d="M332.26,105.1l.62-1.48a5,5,0,0,0,2.79.79c1.16,0,1.61-.43,1.6-1,0-1.57-4.9-.34-5-3.46,0-1.42,1.07-2.65,3.46-2.72a5.61,5.61,0,0,1,2.93.66l-.55,1.49a4.81,4.81,0,0,0-2.35-.59c-1.15,0-1.58.48-1.56,1,0,1.55,4.89.33,5,3.41,0,1.41-1.08,2.64-3.48,2.71A6,6,0,0,1,332.26,105.1Z" style="fill:#fff"></path><path d="M342,98.82l-2.68.08-.05-1.58,7.31-.22.05,1.58-2.68.08.2,6.81-1.94.06Z" style="fill:#fff"></path><path d="M347.12,101.28a4.6,4.6,0,1,1,4.72,4.21A4.34,4.34,0,0,1,347.12,101.28Zm7.22-.21a2.63,2.63,0,1,0-2.55,2.76A2.57,2.57,0,0,0,354.34,101.07Z" style="fill:#fff"></path><path d="M365,99.6c.06,1.87-1.31,3.07-3.55,3.14l-1.69.05.07,2.31-1.94.06-.26-8.39,3.64-.11C363.52,96.59,365,97.71,365,99.6Zm-2,.05c0-.92-.65-1.44-1.83-1.4l-1.59,0,.09,2.92,1.58,0C362.49,101.12,363.07,100.57,363.05,99.65Z" style="fill:#fff"></path><path d="M186.52,101.91l3.81-.12c2.75-.08,4.68,1.52,4.75,4.06s-1.75,4.25-4.5,4.33l-3.81.12Zm3.92,6.68a2.61,2.61,0,1,0-.16-5.2l-1.77,0,.15,5.21Z" style="fill:#fff"></path><path d="M196,105.82a4.6,4.6,0,1,1,4.73,4.2A4.36,4.36,0,0,1,196,105.82Zm7.22-.22a2.63,2.63,0,1,0-2.54,2.77A2.56,2.56,0,0,0,203.24,105.6Z" style="fill:#fff"></path><path d="M217.64,101l.25,8.39-1.59,0-4.34-5,.15,5.1-1.91,0-.26-8.39,1.61,0,4.33,5-.16-5.09Z" style="fill:#fff"></path><path d="M219.23,105.12a4.6,4.6,0,1,1,4.73,4.21A4.35,4.35,0,0,1,219.23,105.12Zm7.22-.21a2.63,2.63,0,1,0-2.54,2.76A2.56,2.56,0,0,0,226.45,104.91Z" style="fill:#fff"></path><path d="M231.42,102.14l-2.68.08-.05-1.58,7.31-.22.05,1.58-2.68.08.2,6.81-1.94.06Z" style="fill:#fff"></path><path d="M247.15,106.93l0,1.55-6.5.2-.25-8.39,6.34-.19,0,1.55-4.41.14.06,1.82,3.89-.12,0,1.51-3.9.12.06,1.94Z" style="fill:#fff"></path><path d="M256.19,99.81l.25,8.4-1.59,0-4.34-5,.15,5.1-1.91.06-.26-8.39,1.61,0,4.33,5-.16-5.1Z" style="fill:#fff"></path><path d="M260,101.29l-2.68.08-.05-1.59,7.31-.22.05,1.59-2.69.08.21,6.81-1.94,0Z" style="fill:#fff"></path><path d="M272.3,106.17l.05,1.56-6.5.19-.25-8.39,6.34-.19.05,1.56-4.41.13.05,1.82,3.9-.11,0,1.51-3.89.12.05,1.94Z" style="fill:#fff"></path><path d="M279.25,107.52l-1.69-2.29h-.1l-1.69.05.07,2.33-1.94.06-.25-8.39,3.63-.11c2.24-.07,3.68,1.06,3.73,2.94a2.73,2.73,0,0,1-1.64,2.7l2,2.64Zm-2-6.75-1.58,0,.08,2.93,1.59,0c1.18,0,1.77-.6,1.74-1.51S278.41,100.73,277.22,100.77Z" style="fill:#fff"></path><rect x="54.64" y="140.03" width="338.64" height="16.01" transform="matrix(0.99, -0.14, 0.14, 0.99, -17.96, 31.64)" style="fill:#ebebeb"></rect><path d="M207.94,152.92l.45-1.54a5,5,0,0,0,2.87.49c1.14-.15,1.55-.6,1.48-1.11-.21-1.56-4.9.17-5.33-2.92-.19-1.41.79-2.74,3.16-3.07a5.65,5.65,0,0,1,3,.35l-.39,1.54a4.81,4.81,0,0,0-2.4-.34c-1.14.16-1.52.65-1.45,1.17.21,1.53,4.91-.19,5.32,2.87.19,1.39-.8,2.73-3.18,3.06A6,6,0,0,1,207.94,152.92Z" style="fill:#fff"></path><path d="M217,145.65l-2.66.36-.22-1.57,7.25-1,.22,1.57-2.66.36.92,6.75-1.93.26Z" style="fill:#fff"></path><path d="M222.31,147.55a4.6,4.6,0,1,1,5.14,3.69A4.34,4.34,0,0,1,222.31,147.55Zm7.15-1a2.62,2.62,0,1,0-2.24,3A2.56,2.56,0,0,0,229.46,146.58Z" style="fill:#fff"></path><path d="M239.92,144c.26,1.85-1,3.2-3.2,3.5l-1.68.23.32,2.29-1.93.26L232.3,142l3.6-.49C238.12,141.16,239.67,142.12,239.92,144Zm-1.95.26c-.12-.91-.79-1.36-2-1.2l-1.57.21.39,2.89,1.57-.22C237.58,145.77,238.1,145.16,238,144.25Z" style="fill:#fff"></path><path d="M70.15,164.08l3.78-.51c2.72-.37,4.81,1,5.16,3.53s-1.3,4.41-4,4.79l-3.78.51Zm4.61,6.24a2.61,2.61,0,1,0-.71-5.16l-1.76.24.71,5.16Z" style="fill:#fff"></path><path d="M80,167a4.6,4.6,0,1,1,5.14,3.68A4.34,4.34,0,0,1,80,167Zm7.15-1a2.62,2.62,0,1,0-2.24,3A2.56,2.56,0,0,0,87.17,166Z" style="fill:#fff"></path><path d="M101,159.87l1.14,8.32-1.58.22-4.84-4.49.69,5.05-1.9.26-1.14-8.32,1.6-.21,4.82,4.48-.69-5.05Z" style="fill:#fff"></path><path d="M103,163.83a4.6,4.6,0,1,1,5.13,3.68A4.34,4.34,0,0,1,103,163.83Zm7.15-1a2.62,2.62,0,1,0-2.24,3A2.57,2.57,0,0,0,110.18,162.86Z" style="fill:#fff"></path><path d="M114.84,159.58l-2.67.37-.21-1.57,7.25-1,.21,1.57-2.66.36.92,6.75-1.92.26Z" style="fill:#fff"></path><path d="M131,162.68l.21,1.55-6.44.88-1.14-8.32,6.29-.86.21,1.54-4.38.6.25,1.81,3.86-.53.21,1.5-3.86.53.26,1.92Z" style="fill:#fff"></path><path d="M139.22,154.66l1.13,8.32-1.58.21-4.83-4.48.68,5-1.9.26-1.13-8.32,1.59-.22L138,160l-.69-5.05Z" style="fill:#fff"></path><path d="M143.13,155.72l-2.66.37-.21-1.57,7.24-1,.22,1.57-2.66.36.92,6.75-1.93.26Z" style="fill:#fff"></path><path d="M155.91,159.28l.21,1.54-6.44.88-1.14-8.32,6.29-.85.21,1.54-4.37.6.24,1.81,3.87-.53.2,1.5-3.86.52.26,1.93Z" style="fill:#fff"></path><path d="M163,159.89l-1.92-2.1-.1,0-1.68.22.32,2.32-1.92.26-1.14-8.31,3.6-.5c2.22-.3,3.77.66,4,2.53a2.73,2.73,0,0,1-1.36,2.86l2.23,2.42Zm-2.73-6.5-1.57.21.4,2.9,1.56-.21c1.18-.16,1.7-.79,1.58-1.69S161.41,153.23,160.23,153.39Z" style="fill:#fff"></path><path d="M283.31,135l3.78-.51c2.72-.37,4.81,1,5.15,3.53s-1.3,4.41-4,4.79l-3.78.51Zm4.6,6.24a2.61,2.61,0,1,0-.7-5.16l-1.76.24.7,5.16Z" style="fill:#fff"></path><path d="M293.17,137.88a4.6,4.6,0,1,1,5.14,3.68A4.35,4.35,0,0,1,293.17,137.88Zm7.16-1a2.63,2.63,0,1,0-2.24,3A2.57,2.57,0,0,0,300.33,136.91Z" style="fill:#fff"></path><path d="M314.16,130.78l1.13,8.32-1.58.22-4.83-4.49.68,5-1.9.26-1.13-8.32,1.59-.21,4.82,4.48-.68-5.05Z" style="fill:#fff"></path><path d="M316.18,134.74a4.6,4.6,0,1,1,5.14,3.69A4.34,4.34,0,0,1,316.18,134.74Zm7.15-1a2.62,2.62,0,1,0-2.24,3A2.56,2.56,0,0,0,323.33,133.77Z" style="fill:#fff"></path><path d="M328,130.49l-2.66.37-.22-1.57,7.25-1,.22,1.57-2.67.36.92,6.75-1.92.26Z" style="fill:#fff"></path><path d="M344.13,133.59l.21,1.55-6.44.88-1.14-8.32,6.29-.86.21,1.55-4.37.59.24,1.81,3.87-.53.2,1.5-3.86.53.26,1.92Z" style="fill:#fff"></path><path d="M352.37,125.57l1.14,8.32-1.58.21-4.84-4.48.69,5-1.9.26-1.14-8.32,1.59-.22,4.83,4.49-.69-5Z" style="fill:#fff"></path><path d="M356.29,126.63l-2.67.37-.21-1.57,7.25-1,.21,1.57-2.66.36.92,6.75-1.92.26Z" style="fill:#fff"></path><path d="M369.06,130.19l.21,1.55-6.44.87-1.13-8.31,6.28-.86.21,1.54-4.37.6.25,1.81,3.86-.53.2,1.5-3.86.52.26,1.93Z" style="fill:#fff"></path><path d="M376.11,130.8l-1.92-2.1-.1,0-1.67.23.31,2.31-1.92.27-1.14-8.32,3.6-.49c2.23-.31,3.77.66,4,2.52A2.74,2.74,0,0,1,376,128.1l2.23,2.42Zm-2.73-6.5-1.57.21.4,2.9,1.57-.21c1.17-.16,1.69-.79,1.57-1.69S374.56,124.14,373.38,124.3Z" style="fill:#fff"></path><rect x="98.5" y="203.88" width="338.64" height="16.01" transform="translate(-11.62 15.58) rotate(-3.26)" style="fill:#ebebeb"></rect><path d="M251.46,215.5,252,214a5,5,0,0,0,2.81.72c1.15-.07,1.6-.48,1.57-1-.09-1.57-4.9-.22-5.08-3.33-.08-1.43,1-2.68,3.38-2.81a5.66,5.66,0,0,1,3,.57l-.51,1.51a4.63,4.63,0,0,0-2.36-.52c-1.15.06-1.57.52-1.54,1,.09,1.55,4.9.2,5.08,3.28.08,1.4-1,2.67-3.41,2.8A6,6,0,0,1,251.46,215.5Z" style="fill:#fff"></path><path d="M261,209l-2.68.15-.09-1.58,7.3-.42.09,1.58-2.68.16.39,6.8-1.94.11Z" style="fill:#fff"></path><path d="M266.21,211.28a4.6,4.6,0,1,1,4.83,4.07A4.34,4.34,0,0,1,266.21,211.28Zm7.21-.41A2.63,2.63,0,1,0,271,213.7,2.56,2.56,0,0,0,273.42,210.87Z" style="fill:#fff"></path><path d="M284.05,209.11c.11,1.87-1.23,3.11-3.47,3.24l-1.69.09.14,2.32-1.94.11-.48-8.39,3.63-.2C282.47,206.15,283.94,207.23,284.05,209.11Zm-2,.11c-.06-.92-.69-1.42-1.87-1.36l-1.58.09.16,2.91,1.58-.09C281.57,210.71,282.14,210.13,282.09,209.22Z" style="fill:#fff"></path><path d="M113.23,215.8l3.81-.22c2.74-.16,4.71,1.39,4.86,3.93s-1.65,4.29-4.39,4.45l-3.8.22Zm4.1,6.57a2.6,2.6,0,1,0-.3-5.19l-1.77.1.29,5.19Z" style="fill:#fff"></path><path d="M122.83,219.45a4.6,4.6,0,1,1,4.84,4.08A4.35,4.35,0,0,1,122.83,219.45ZM130,219a2.62,2.62,0,1,0-2.47,2.83A2.56,2.56,0,0,0,130,219Z" style="fill:#fff"></path><path d="M144.31,214l.48,8.39-1.59.09-4.47-4.85.29,5.09-1.92.1-.48-8.38,1.61-.09,4.46,4.85-.29-5.09Z" style="fill:#fff"></path><path d="M146,218.13a4.6,4.6,0,1,1,4.83,4.08A4.34,4.34,0,0,1,146,218.13Zm7.21-.41a2.63,2.63,0,1,0-2.47,2.83A2.56,2.56,0,0,0,153.23,217.72Z" style="fill:#fff"></path><path d="M158.12,214.82l-2.68.16-.09-1.58,7.3-.42.1,1.58-2.69.15.39,6.8-1.94.11Z" style="fill:#fff"></path><path d="M174,219.18l.09,1.56-6.49.37-.48-8.38,6.34-.36.08,1.55-4.4.25.1,1.82,3.89-.22.09,1.51-3.89.22.11,1.94Z" style="fill:#fff"></path><path d="M182.82,211.83l.48,8.38-1.6.09-4.47-4.85.29,5.09-1.91.11-.48-8.38,1.6-.09,4.46,4.85-.29-5.09Z" style="fill:#fff"></path><path d="M186.64,213.2l-2.69.15-.09-1.58,7.31-.42.09,1.59-2.68.15.38,6.8L187,220Z" style="fill:#fff"></path><path d="M199.09,217.75l.09,1.56-6.49.37-.48-8.39,6.34-.36.09,1.56-4.41.25.1,1.82,3.9-.22.08,1.51-3.89.22.11,1.94Z" style="fill:#fff"></path><path d="M206.07,218.91l-1.75-2.24h-.09l-1.69.09.13,2.34-1.94.11-.48-8.38,3.63-.21c2.24-.13,3.71,1,3.81,2.83a2.73,2.73,0,0,1-1.57,2.75l2,2.58Zm-2.21-6.69-1.58.09.17,2.92,1.58-.09c1.19-.07,1.75-.65,1.7-1.56S205.05,212.15,203.86,212.22Z" style="fill:#fff"></path><path d="M328,203.56l3.81-.22c2.74-.16,4.71,1.39,4.86,3.93s-1.64,4.29-4.39,4.45l-3.8.22Zm4.1,6.57a2.6,2.6,0,1,0-.3-5.19L330,205l.29,5.19Z" style="fill:#fff"></path><path d="M337.61,207.21a4.6,4.6,0,1,1,4.84,4.08A4.35,4.35,0,0,1,337.61,207.21Zm7.21-.41a2.62,2.62,0,1,0-2.47,2.83A2.56,2.56,0,0,0,344.82,206.8Z" style="fill:#fff"></path><path d="M359.09,201.78l.48,8.38-1.59.1-4.47-4.85.29,5.08-1.92.11-.47-8.38,1.6-.09,4.46,4.85-.29-5.09Z" style="fill:#fff"></path><path d="M360.8,205.89a4.6,4.6,0,1,1,4.83,4.07A4.35,4.35,0,0,1,360.8,205.89Zm7.21-.41a2.63,2.63,0,1,0-2.47,2.83A2.56,2.56,0,0,0,368,205.48Z" style="fill:#fff"></path><path d="M372.9,202.58l-2.68.16-.09-1.59,7.31-.41.09,1.58-2.69.15.39,6.8-1.94.11Z" style="fill:#fff"></path><path d="M388.75,206.94l.09,1.56-6.49.37-.48-8.39,6.34-.36.08,1.56-4.4.25.1,1.82,3.89-.22L388,205l-3.89.22.11,1.94Z" style="fill:#fff"></path><path d="M397.6,199.59l.48,8.38-1.6.09L392,203.21l.29,5.09-1.91.11-.48-8.38,1.6-.09,4.46,4.85-.29-5.09Z" style="fill:#fff"></path><path d="M401.42,201l-2.69.15-.09-1.58,7.31-.42.09,1.58-2.68.16.38,6.8-1.94.11Z" style="fill:#fff"></path><path d="M413.87,205.51l.09,1.55-6.49.38-.48-8.39,6.34-.36.09,1.56-4.41.25.1,1.82,3.9-.22.08,1.51-3.89.22.11,1.94Z" style="fill:#fff"></path><path d="M420.85,206.67l-1.75-2.24H419l-1.69.09.13,2.34-1.94.11-.48-8.39,3.63-.2c2.24-.13,3.71,1,3.81,2.83A2.73,2.73,0,0,1,420.9,204l2,2.58ZM418.64,200l-1.58.09.17,2.92,1.58-.09c1.19-.07,1.75-.66,1.7-1.57S419.83,199.91,418.64,200Z" style="fill:#fff"></path><rect x="67.83" y="237.75" width="338.64" height="16.01" transform="translate(40.85 -33.71) rotate(8.89)" style="fill:#e0e0e0"></rect><path d="M106.66,228l.88-1.34a4.9,4.9,0,0,0,2.61,1.29c1.13.18,1.65-.13,1.73-.64.25-1.55-4.74-1.24-4.26-4.32.22-1.41,1.54-2.4,3.9-2a5.63,5.63,0,0,1,2.76,1.18l-.82,1.37a4.79,4.79,0,0,0-2.19-1c-1.14-.17-1.65.18-1.73.71-.24,1.52,4.75,1.22,4.27,4.27-.21,1.39-1.55,2.39-3.92,2A6,6,0,0,1,106.66,228Z" style="fill:#f0f0f0"></path><path d="M117.41,223.66l-2.66-.41.25-1.56,7.22,1.13-.24,1.56-2.66-.41-1,6.73-1.92-.3Z" style="fill:#f0f0f0"></path><path d="M122,227a4.6,4.6,0,1,1,3.87,5A4.34,4.34,0,0,1,122,227Zm7.13,1.11a2.63,2.63,0,1,0-3,2.25A2.56,2.56,0,0,0,129.1,228.14Z" style="fill:#f0f0f0"></path><path d="M139.87,228.66c-.29,1.85-1.86,2.78-4.07,2.44l-1.67-.27-.36,2.29-1.92-.3,1.3-8.29,3.59.56C139,225.43,140.16,226.8,139.87,228.66Zm-2-.3c.15-.91-.36-1.54-1.53-1.72l-1.57-.25-.45,2.88,1.56.24C137.11,229.7,137.78,229.26,137.92,228.36Z" style="fill:#f0f0f0"></path><path d="M334.14,263.64l.88-1.34a4.87,4.87,0,0,0,2.6,1.29c1.13.18,1.66-.13,1.74-.64.24-1.55-4.75-1.24-4.27-4.32.22-1.41,1.54-2.4,3.9-2a5.71,5.71,0,0,1,2.77,1.18l-.82,1.37a4.87,4.87,0,0,0-2.2-1c-1.14-.17-1.64.19-1.73.71-.23,1.53,4.75,1.22,4.28,4.27-.22,1.39-1.56,2.39-3.93,2A6,6,0,0,1,334.14,263.64Z" style="fill:#f0f0f0"></path><path d="M344.88,259.27l-2.66-.42.25-1.56,7.23,1.13-.25,1.56-2.65-.41-1.06,6.73-1.92-.3Z" style="fill:#f0f0f0"></path><path d="M349.44,262.63a4.6,4.6,0,1,1,3.87,5A4.34,4.34,0,0,1,349.44,262.63Zm7.14,1.11a2.63,2.63,0,1,0-3,2.25A2.57,2.57,0,0,0,356.58,263.74Z" style="fill:#f0f0f0"></path><path d="M367.34,264.26c-.29,1.85-1.86,2.78-4.07,2.44l-1.67-.27-.36,2.29-1.92-.3,1.3-8.29,3.59.56C366.43,261,367.63,262.4,367.34,264.26Zm-1.94-.3c.14-.91-.37-1.54-1.54-1.72l-1.57-.25-.45,2.88,1.57.25C364.58,265.3,365.26,264.86,365.4,264Z" style="fill:#f0f0f0"></path><path d="M191.48,233.66l3.76.59c2.72.42,4.32,2.35,3.93,4.86s-2.51,3.85-5.22,3.43l-3.77-.59ZM194.1,241a2.61,2.61,0,1,0,.8-5.14l-1.75-.28-.81,5.14Z" style="fill:#f0f0f0"></path><path d="M200.1,239.25a4.6,4.6,0,1,1,3.86,5A4.35,4.35,0,0,1,200.1,239.25Zm7.13,1.12a2.63,2.63,0,1,0-3,2.25A2.56,2.56,0,0,0,207.23,240.37Z" style="fill:#f0f0f0"></path><path d="M222.24,238.47l-1.3,8.29-1.58-.24L216,240.83l-.79,5-1.9-.3,1.3-8.29,1.59.25,3.33,5.68.79-5Z" style="fill:#f0f0f0"></path><path d="M223,242.84a4.6,4.6,0,1,1,3.87,5A4.35,4.35,0,0,1,223,242.84Zm7.13,1.12a2.63,2.63,0,1,0-3,2.25A2.56,2.56,0,0,0,230.17,244Z" style="fill:#f0f0f0"></path><path d="M235.57,242.16l-2.65-.42.24-1.56,7.23,1.13-.25,1.57-2.65-.42-1.05,6.73-1.92-.3Z" style="fill:#f0f0f0"></path><path d="M250.14,249.76l-.24,1.54-6.42-1,1.3-8.29,6.27,1-.24,1.54-4.36-.68-.29,1.8,3.85.6-.23,1.49-3.85-.6-.3,1.92Z" style="fill:#f0f0f0"></path><path d="M260.34,244.43l-1.3,8.3-1.57-.25-3.35-5.68-.79,5-1.89-.29,1.29-8.3,1.59.25,3.34,5.68.78-5Z" style="fill:#f0f0f0"></path><path d="M263.79,246.58l-2.66-.42.25-1.57,7.22,1.14-.24,1.56-2.65-.41-1.06,6.73-1.92-.31Z" style="fill:#f0f0f0"></path><path d="M275,253.65l-.24,1.54-6.42-1,1.3-8.29,6.27,1-.24,1.54-4.36-.68-.29,1.8,3.86.6-.24,1.49-3.85-.6-.3,1.92Z" style="fill:#f0f0f0"></path><path d="M281.58,256.25l-1.24-2.56h-.09l-1.67-.26-.36,2.31-1.92-.3,1.29-8.3,3.6.57c2.21.34,3.42,1.71,3.13,3.57a2.74,2.74,0,0,1-2.12,2.35l1.44,3Zm-.75-7-1.56-.24-.45,2.89,1.56.24c1.17.19,1.85-.26,2-1.17S282,249.43,280.83,249.24Z" style="fill:#f0f0f0"></path><rect x="65.91" y="272.61" width="338.64" height="16.01" transform="translate(-8.83 7.64) rotate(-1.83)" style="fill:#ebebeb"></rect><path d="M218.78,283.82l.62-1.49a4.89,4.89,0,0,0,2.79.79c1.15,0,1.61-.44,1.59-.95-.05-1.57-4.89-.34-5-3.46,0-1.42,1.07-2.64,3.45-2.72a5.65,5.65,0,0,1,2.94.65l-.55,1.49a4.69,4.69,0,0,0-2.35-.58c-1.15,0-1.58.48-1.56,1,0,1.54,4.89.32,5,3.4,0,1.41-1.08,2.64-3.48,2.72A6,6,0,0,1,218.78,283.82Z" style="fill:#fff"></path><path d="M228.52,277.52l-2.68.08-.05-1.58,7.31-.23.05,1.58-2.69.09.22,6.8-1.94.07Z" style="fill:#fff"></path><path d="M233.63,280a4.6,4.6,0,1,1,4.73,4.19A4.36,4.36,0,0,1,233.63,280Zm7.22-.23a2.63,2.63,0,1,0-2.54,2.77A2.56,2.56,0,0,0,240.85,279.74Z" style="fill:#fff"></path><path d="M251.52,278.25c.06,1.87-1.3,3.07-3.55,3.15l-1.69.05.08,2.31-1.94.07-.27-8.4,3.63-.11C250,275.25,251.46,276.37,251.52,278.25Zm-2,.06c0-.92-.65-1.44-1.84-1.41l-1.58.06.09,2.91,1.59-.05C249,279.78,249.59,279.22,249.56,278.31Z" style="fill:#fff"></path><path d="M80.59,280.65l3.81-.12c2.74-.09,4.68,1.51,4.76,4.05s-1.75,4.25-4.49,4.34l-3.82.12Zm3.93,6.68a2.61,2.61,0,1,0-.17-5.2l-1.77.05.16,5.21Z" style="fill:#fff"></path><path d="M90.1,284.55a4.6,4.6,0,1,1,4.73,4.19A4.34,4.34,0,0,1,90.1,284.55Zm7.22-.23a2.63,2.63,0,1,0-2.54,2.77A2.57,2.57,0,0,0,97.32,284.32Z" style="fill:#fff"></path><path d="M111.71,279.66l.26,8.39-1.59.05-4.35-5,.17,5.09-1.92.07-.27-8.4,1.61,0,4.33,5-.16-5.09Z" style="fill:#fff"></path><path d="M113.31,283.81A4.6,4.6,0,1,1,118,288,4.34,4.34,0,0,1,113.31,283.81Zm7.21-.23a2.63,2.63,0,1,0-2.54,2.77A2.55,2.55,0,0,0,120.52,283.58Z" style="fill:#fff"></path><path d="M125.49,280.8l-2.68.09,0-1.58,7.31-.24.05,1.59-2.69.08.22,6.81-1.94.06Z" style="fill:#fff"></path><path d="M141.23,285.56l0,1.56-6.49.2-.27-8.39,6.34-.2.05,1.56-4.41.14.06,1.82,3.89-.12.05,1.51-3.89.12.06,1.94Z" style="fill:#fff"></path><path d="M150.25,278.43l.27,8.39-1.59.05-4.35-5,.16,5.09-1.91.07-.27-8.4,1.6-.05,4.34,5-.16-5.09Z" style="fill:#fff"></path><path d="M154,279.89l-2.69.09,0-1.58,7.31-.24,0,1.59-2.68.08.22,6.81-1.95.06Z" style="fill:#fff"></path><path d="M166.38,284.76l.05,1.55-6.5.21-.27-8.39,6.34-.2.05,1.56-4.41.14.06,1.82,3.89-.13,0,1.51-3.89.13.06,1.94Z" style="fill:#fff"></path><path d="M173.32,286.09l-1.69-2.28h-.1l-1.69.05.08,2.34-1.94.06-.27-8.39,3.63-.11c2.24-.07,3.68,1,3.74,2.93a2.72,2.72,0,0,1-1.64,2.7l2,2.64Zm-2-6.75-1.58.05.09,2.93,1.59-.05c1.18,0,1.77-.61,1.74-1.52S172.47,279.31,171.28,279.34Z" style="fill:#fff"></path><path d="M295.61,273.79l3.81-.12c2.74-.09,4.68,1.51,4.76,4.05s-1.75,4.26-4.49,4.34l-3.82.12Zm3.93,6.68a2.61,2.61,0,1,0-.17-5.2l-1.77.06.16,5.2Z" style="fill:#fff"></path><path d="M305.12,277.69a4.6,4.6,0,1,1,4.73,4.19A4.35,4.35,0,0,1,305.12,277.69Zm7.22-.23a2.63,2.63,0,1,0-2.54,2.77A2.57,2.57,0,0,0,312.34,277.46Z" style="fill:#fff"></path><path d="M326.73,272.8l.26,8.39-1.59.05-4.35-5,.16,5.1-1.91.06-.27-8.39,1.61-.05,4.33,5-.16-5.1Z" style="fill:#fff"></path><path d="M328.33,277a4.6,4.6,0,1,1,4.73,4.19A4.35,4.35,0,0,1,328.33,277Zm7.21-.23a2.63,2.63,0,1,0-2.54,2.77A2.55,2.55,0,0,0,335.54,276.72Z" style="fill:#fff"></path><path d="M340.51,274l-2.68.08-.05-1.58,7.31-.23.05,1.58-2.69.08.22,6.81-1.94.06Z" style="fill:#fff"></path><path d="M356.25,278.7l0,1.56-6.49.2-.27-8.39,6.34-.2.05,1.56-4.41.14.06,1.82,3.89-.12.05,1.51-3.89.12.06,2Z" style="fill:#fff"></path><path d="M365.27,271.57l.27,8.39L364,280l-4.35-5,.16,5.1-1.91.06-.27-8.39,1.6-.05,4.34,5-.16-5.1Z" style="fill:#fff"></path><path d="M369.06,273l-2.69.08-.05-1.58,7.31-.24.05,1.59L371,273l.22,6.81-2,.06Z" style="fill:#fff"></path><path d="M381.4,277.9l.05,1.56-6.5.2-.27-8.39,6.34-.2.05,1.56-4.41.14.06,1.82,3.89-.12.05,1.51-3.89.12.06,1.94Z" style="fill:#fff"></path><path d="M388.34,279.24,386.65,277h-.1l-1.69.06.08,2.33-1.94.07-.27-8.4,3.63-.11c2.24-.07,3.68,1.05,3.74,2.93a2.71,2.71,0,0,1-1.64,2.7l2,2.64Zm-2-6.75-1.58.05.09,2.92,1.59,0c1.18,0,1.76-.61,1.74-1.52S387.49,272.45,386.3,272.49Z" style="fill:#fff"></path></g><g id="freepik--Shadow--inject-3"><ellipse id="freepik--path--inject-3" cx="250" cy="416.24" rx="193.89" ry="11.32" style="fill:#f5f5f5"></ellipse></g><g id="freepik--Plant--inject-3"><path d="M393.55,394s1.09-8,6.24-8.93,3.59-4.77,4.93-6.27,4.84,2.93,1.85,7.24S406,389,404.72,393,393.08,400.7,393.55,394Z" style="fill:#263238"></path><path d="M393.55,394s1.09-8,6.24-8.93,3.59-4.77,4.93-6.27,4.84,2.93,1.85,7.24S406,389,404.72,393,393.08,400.7,393.55,394Z" style="fill:#fff;isolation:isolate;opacity:0.2"></path><path d="M393.76,399.71a.41.41,0,0,1-.19,0,.46.46,0,0,1-.22-.6c0-.08,3.86-8.24,1.84-21.31a54.31,54.31,0,0,0-3.12-11c-2.45-6.68-4.57-12.46.07-22.55,1.43-3.11,2.88-6,4.29-8.81,5.19-10.31,9.29-18.45,6.31-26.51a.45.45,0,0,1,.85-.31c3.12,8.43-1.06,16.72-6.35,27.23-1.41,2.79-2.86,5.68-4.28,8.77-4.48,9.76-2.52,15.1,0,21.87a56.16,56.16,0,0,1,3.16,11.16c2.07,13.36-1.75,21.5-1.91,21.84A.46.46,0,0,1,393.76,399.71Z" style="fill:#263238"></path><path d="M396.73,397.65s3.33-5-1.47-7.59-5.77-.5-8.74-2.36-5.22-6.34-5.72-3.47,2.92,4.51,1.71,5.83S390.58,399.91,396.73,397.65Z" style="fill:#263238"></path><path d="M404.58,312.92s3.24-9.84-4.13-10.05S401.2,311.87,404.58,312.92Z" style="fill:#263238"></path><path d="M398.18,320.5s-2.2-9-7.43-7.07S393,320.66,398.18,320.5Z" style="fill:#263238"></path><path d="M407.05,321.27s-.79-7.14,4.76-7.29S414.89,320.12,407.05,321.27Z" style="fill:#263238"></path><path d="M403.36,335.85s7.45-6.64,10.12-1.7S407.87,340.12,403.36,335.85Z" style="fill:#263238"></path><path d="M390.18,334.67s-1.4-11-7.42-7.57S384.94,335.77,390.18,334.67Z" style="fill:#263238"></path><path d="M384.88,350.46s4.44-11.14-3.81-9.89S379.06,347.76,384.88,350.46Z" style="fill:#263238"></path><path d="M397.55,354.44s7-8.21,12.3-5.61S410.82,359.6,397.55,354.44Z" style="fill:#263238"></path><path d="M391.22,372.63s-5.94-13.18-11.22-8.74S383.37,375,391.22,372.63Z" style="fill:#263238"></path><path d="M399.85,371.86s-1.57-10.23,4.31-9.41S408.5,369.54,399.85,371.86Z" style="fill:#263238"></path><g style="isolation:isolate;opacity:0.2"><path d="M404.58,312.92s3.24-9.84-4.13-10.05S401.2,311.87,404.58,312.92Z" style="fill:#fff"></path><path d="M398.18,320.5s-2.2-9-7.43-7.07S393,320.66,398.18,320.5Z" style="fill:#fff"></path><path d="M407.05,321.27s-.79-7.14,4.76-7.29S414.89,320.12,407.05,321.27Z" style="fill:#fff"></path><path d="M403.36,335.85s7.45-6.64,10.12-1.7S407.87,340.12,403.36,335.85Z" style="fill:#fff"></path><path d="M390.18,334.67s-1.4-11-7.42-7.57S384.94,335.77,390.18,334.67Z" style="fill:#fff"></path><path d="M384.88,350.46s4.44-11.14-3.81-9.89S379.06,347.76,384.88,350.46Z" style="fill:#fff"></path><path d="M397.55,354.44s7-8.21,12.3-5.61S410.82,359.6,397.55,354.44Z" style="fill:#fff"></path><path d="M391.22,372.63s-5.94-13.18-11.22-8.74S383.37,375,391.22,372.63Z" style="fill:#fff"></path><path d="M399.85,371.86s-1.57-10.23,4.31-9.41S408.5,369.54,399.85,371.86Z" style="fill:#fff"></path></g><path d="M401.39,326.52l-.13,0a.46.46,0,0,1-.27-.22c0-.06-2.84-5.44-4.94-6.7a.47.47,0,0,1-.16-.62.46.46,0,0,1,.62-.16c2,1.19,4.33,5.3,5.06,6.64a26.21,26.21,0,0,0,6.95-6.76.45.45,0,1,1,.75.5,25.9,25.9,0,0,1-7.66,7.28A.46.46,0,0,1,401.39,326.52Z" style="fill:#263238"></path><path d="M394.63,340.2h-.08a.5.5,0,0,1-.31-.22c0-.06-3.54-5.94-8-8.58a.45.45,0,1,1,.46-.78c4,2.37,7.18,7,8.09,8.48a25.6,25.6,0,0,1,14.33-4.36.46.46,0,0,1,.44.46.49.49,0,0,1-.47.44c-.08,0-8-.19-14.15,4.47A.47.47,0,0,1,394.63,340.2Z" style="fill:#263238"></path><path d="M390.33,358.29a.48.48,0,0,1-.28-.1c-4.46-3.58-7.88-12.47-8-12.85a.45.45,0,1,1,.84-.32c0,.09,3.35,8.71,7.51,12.27,1.61-.9,9.63-5.22,15.82-5.35a.46.46,0,0,1,.46.45.45.45,0,0,1-.44.46c-6.53.12-15.57,5.32-15.66,5.38A.46.46,0,0,1,390.33,358.29Z" style="fill:#263238"></path><path d="M395.58,377a.47.47,0,0,1-.37-.19,19.46,19.46,0,0,0-9.74-6.33.45.45,0,0,1-.3-.56.46.46,0,0,1,.56-.31,20.66,20.66,0,0,1,10,6.33c3.19-2.2,7.35-10.28,7.39-10.36a.45.45,0,1,1,.8.41c-.18.36-4.62,9-8.07,10.95A.46.46,0,0,1,395.58,377Z" style="fill:#263238"></path><path d="M393.7,396.07s3.24-5.15,6.9-5.89,5.23-4.94,6.58-2.41S404.81,398.7,393.7,396.07Z" style="fill:#263238"></path><polygon points="412.51 416.3 377.15 416.3 374.78 394.49 414.87 394.49 412.51 416.3" style="fill:#C53F3F"></polygon><polygon points="415.7 398.62 373.96 398.62 373.42 394 416.23 394 415.7 398.62" style="fill:#C53F3F"></polygon><polygon points="415.7 398.62 373.96 398.62 373.42 394 416.23 394 415.7 398.62" style="fill:#fff;opacity:0.30000000000000004"></polygon></g><g id="freepik--trafic-cone--inject-3"><polygon points="228.33 407.75 214.49 338.82 209.19 338.82 195.34 407.75 185.17 413.98 185.17 415.82 238.17 415.82 238.17 413.98 228.33 407.75" style="fill:#C53F3F"></polygon><rect x="185.17" y="413.98" width="53" height="2.32" style="isolation:isolate;opacity:0.2"></rect><polygon points="214.49 338.82 209.19 338.82 195.18 407.55 228.16 407.55 214.49 338.82" style="isolation:isolate;opacity:0.2"></polygon><polygon points="223.73 385.25 220.58 369.42 202.95 369.42 199.72 385.25 223.73 385.25" style="fill:#fff;isolation:isolate;opacity:0.8"></polygon></g><g id="freepik--Sign--inject-3"><polygon points="334.53 172.77 264.54 172.77 215.05 222.26 215.05 292.25 264.54 341.74 334.53 341.74 384.02 292.25 384.02 222.26 334.53 172.77" style="fill:#C53F3F"></polygon><path d="M332.73,336.37H266.35l-46.94-46.93V223.06l46.94-46.93h66.38l46.93,46.93v66.38Zm-65.14-3h63.89l45.18-45.17V224.31l-45.18-45.18H267.59l-45.18,45.18V288.2Z" style="fill:#fff"></path><path d="M250.14,223.41h7.64c5.5,0,9.27,3.32,9.27,8.41s-3.77,8.41-9.27,8.41h-7.64ZM257.59,237c3.34,0,5.52-2,5.52-5.22s-2.18-5.21-5.52-5.21H254V237Z" style="fill:#fff"></path><path d="M268.92,231.82c0-5,3.9-8.7,9.21-8.7s9.2,3.68,9.2,8.7-3.92,8.7-9.2,8.7S268.92,236.82,268.92,231.82Zm14.47,0a5.27,5.27,0,1,0-5.26,5.39A5.13,5.13,0,0,0,283.39,231.82Z" style="fill:#fff"></path><path d="M312.49,223.41v16.82h-3.2L300.9,230v10.21h-3.84V223.41h3.22l8.36,10.22V223.41Z" style="fill:#fff"></path><path d="M315.41,231.82c0-5,3.9-8.7,9.21-8.7s9.2,3.68,9.2,8.7-3.92,8.7-9.2,8.7S315.41,236.82,315.41,231.82Zm14.47,0a5.27,5.27,0,1,0-5.26,5.39A5.13,5.13,0,0,0,329.88,231.82Z" style="fill:#fff"></path><path d="M340,226.58h-5.38v-3.17h14.66v3.17h-5.38v13.65H340Z" style="fill:#fff"></path><path d="M265.7,289.57v3.81H249.81V272.85h15.51v3.82H254.53v4.45h9.53v3.7h-9.53v4.75Z" style="fill:#fff"></path><path d="M288.32,272.85v20.53h-3.9l-10.24-12.46v12.46h-4.69V272.85h3.93l10.21,12.47V272.85Z" style="fill:#fff"></path><path d="M297.44,276.73h-6.57v-3.88h17.89v3.88h-6.57v16.65h-4.75Z" style="fill:#fff"></path><path d="M327.21,289.57v3.81H311.32V272.85h15.51v3.82H316v4.45h9.53v3.7H316v4.75Z" style="fill:#fff"></path><path d="M344.08,293.38l-4-5.72h-4.37v5.72H331V272.85h8.89c5.48,0,8.91,2.85,8.91,7.45a6.66,6.66,0,0,1-4.22,6.48l4.6,6.6Zm-4.46-16.65h-3.87v7.15h3.87c2.91,0,4.37-1.35,4.37-3.58S342.53,276.73,339.62,276.73Z" style="fill:#fff"></path><rect x="240.2" y="247.55" width="118.68" height="17.4" style="fill:#fff"></rect></g><g id="freepik--Character--inject-3"><path d="M140.13,184.46c11.08,3.18,19.38,12.47,28.58,17.81a2.9,2.9,0,0,0-1.19,0c4.27-1.62,8.17-5.32,11.81-8.33,4-3.43,8.19-7.33,12.06-11,.24-.27.59-.45,1.49-.08a10.57,10.57,0,0,1,6.36,5.71c.63,1.38-.08,1.51-.73,2.45l-1.46,1.77a129.16,129.16,0,0,1-16.27,16.56c-3.05,2.42-6,4.75-10,5.91-2.66.93-6.59,0-9-1.24a106.86,106.86,0,0,1-12.26-7.64c-4.24-2.73-8.43-5.92-13.06-7.29-9.95-2.62-6.45-17,3.62-14.7Z" style="fill:#263238"></path><path d="M140.13,184.46c11.08,3.18,19.38,12.47,28.58,17.81a2.9,2.9,0,0,0-1.19,0c4.27-1.62,8.17-5.32,11.81-8.33,4-3.43,8.19-7.33,12.06-11,.24-.27.59-.45,1.49-.08a10.57,10.57,0,0,1,6.36,5.71c.63,1.38-.08,1.51-.73,2.45l-1.46,1.77a129.16,129.16,0,0,1-16.27,16.56c-3.05,2.42-6,4.75-10,5.91-2.66.93-6.59,0-9-1.24a106.86,106.86,0,0,1-12.26-7.64c-4.24-2.73-8.43-5.92-13.06-7.29-9.95-2.62-6.45-17,3.62-14.7Z" style="fill:#fff;opacity:0.2"></path><path d="M155.59,210.49c-2.12-1.37-4.09-2.72-6-4l-2.2-1.47a20.68,20.68,0,0,1,1-6.24A22.9,22.9,0,0,1,155.59,210.49Z" style="opacity:0.2"></path><path d="M162.44,414.08s-12.13-3.57-13-8.35a.83.83,0,0,0-1-.7l-8.81,1.48a1.17,1.17,0,0,0-.9.78l-2.69,8.57,2.5.08.92-1.23,1,1.29c13.52.43,19.37.46,22.07-.3C163,414.52,162.44,414.08,162.44,414.08Z"></path><path d="M151,328.11c-1.68,24.95-.68,77.65-.68,77.65l-12,2.87s-7.12-38.89-8-65.87q-.12-3.79-.11-7.59a388.74,388.74,0,0,0-9.64-44c-2.94-10.74-5.53-19.28-6.93-27.45l35-11.37C150.56,258.48,153.93,284.8,151,328.11Z" style="fill:#263238"></path><path d="M130.29,342.76q-.12-3.79-.11-7.59a388.74,388.74,0,0,0-9.64-44c3.77-10.74,8.57-18.8,13.75-19.74C134.29,271.45,143.49,318.12,130.29,342.76Z" style="opacity:0.4"></path><path d="M149.76,256.46a40.23,40.23,0,0,0-.64-8.29c-.07-.86-40.45.58-43.79,1-4.18.48.86,19.36,4.66,25.62C139.31,274.43,149.23,261.57,149.76,256.46Z" style="fill:#263238"></path><path d="M122.42,414.08s-12.13-3.57-13-8.35a.83.83,0,0,0-1-.7l-8.81,1.48a1.15,1.15,0,0,0-.89.78L96,415.86l2.49.08.92-1.23,1,1.29c13.52.43,19.37.46,22.07-.3C123,414.52,122.42,414.08,122.42,414.08Z"></path><path d="M103.77,334.6c1.51-36.45.08-59.3.58-76.42l33.84-1.12c.71,6.38-1.19,32.84-12.6,74.73C119,355.91,110.26,406,110.26,406l-12.39,1.61S97.8,363.5,103.77,334.6Z" style="fill:#263238"></path><path d="M104.9,187.9a143.29,143.29,0,0,1,29.22-4,16.41,16.41,0,0,1,16.65,14.35c1.88,15-1.41,20.28-.94,43.58a106.85,106.85,0,0,1,1.53,18.19c-.76,3.67-8.77,7.79-8.77,7.79l-4.4-10.78-4.06,10.78s-28-1.32-31.11-3.93c0,0,1.49-23.84-.17-33.37-2.51-9.31-2.42-16.57-5.9-28.91A11.09,11.09,0,0,1,104.9,187.9Z" style="fill:#263238"></path><path d="M151.35,260.05c-.76,3.67-8.76,7.79-8.76,7.79l-4.4-10.78-4.07,10.78s-28-1.32-31.11-3.93c0,0,1.49-23.84-.16-33.37a109.57,109.57,0,0,1-2.4-12.13c-.39-2.38-.78-4.86-1.31-7.55s-1.24-5.81-2.2-9.23a11.1,11.1,0,0,1,8-13.73,143.38,143.38,0,0,1,29.23-4,16.41,16.41,0,0,1,16.64,14.35c1.89,15-1.41,20.28-.93,43.58A107.48,107.48,0,0,1,151.35,260.05Z" style="fill:#fff;opacity:0.2"></path><path d="M102.17,253.73l7.41,4.13L102.34,265s-6.26-4.55-4.38-8.27Z" style="fill:#ebb376"></path><path d="M112.06,266.31l-3,2.08a2.93,2.93,0,0,1-3.79-.35l-3-3,7.24-7.15,3.16,4.31A2.93,2.93,0,0,1,112.06,266.31Z" style="fill:#ebb376"></path><path d="M100.45,218.41c-.39-2.38-.78-4.86-1.31-7.55,2.51-3.81,5-7.11,5-7.11S105,212.76,100.45,218.41Z" style="opacity:0.2"></path><path d="M109.72,202.19c-7.4,8.19-15.34,16.32-21.68,25.32-.11.2-.28.45-.32.54l-.06.1a1.27,1.27,0,0,1,.06-.28,2.49,2.49,0,0,0,.07-1c0-.1,0-.06,0,.06a18.81,18.81,0,0,0,2,4.6,150.67,150.67,0,0,0,9.79,14.7c1.21,1.65,3.5,4.81,4.73,6.41.25.28.42.64-.06,1.53a10.64,10.64,0,0,1-6.38,5.69c-1,.31-1.33.08-1.59-.23l-.84-.85-1.66-1.71c-6.09-6.64-21.61-23.13-19.13-32.53a19.56,19.56,0,0,1,2.33-5.13c6.3-9.93,14-18.64,21.62-27.48,7-7.35,17.87,2.5,11.18,10.21Z" style="fill:#263238"></path><polygon points="111.14 189 123.88 205.49 135.71 224.58 140.26 204.8 136.63 191.35 130.44 184.09 119.35 185.81 109.47 188.17 111.14 189" style="fill:#fff;opacity:0.9"></polygon><path d="M109.72,202.19c-7.4,8.19-15.34,16.32-21.68,25.32-.11.2-.28.45-.32.54l-.06.1a1.27,1.27,0,0,1,.06-.28,2.49,2.49,0,0,0,.07-1c0-.1,0-.06,0,.06a18.81,18.81,0,0,0,2,4.6,150.67,150.67,0,0,0,9.79,14.7c1.21,1.65,3.5,4.81,4.73,6.41.25.28.42.64-.06,1.53a10.64,10.64,0,0,1-6.38,5.69c-1,.31-1.33.08-1.59-.23l-.84-.85-1.66-1.71c-6.09-6.64-21.61-23.13-19.13-32.53a19.56,19.56,0,0,1,2.33-5.13c6.3-9.93,14-18.64,21.62-27.48,7-7.35,17.87,2.5,11.18,10.21Z" style="fill:#fff;opacity:0.2"></path><path d="M123,192.14l5.47,2.92,3.27,23.59,4,5.93,1.58-4.88s-4.73-18.06-6.85-25.32l1.25-3.56-4.92-1.71Z" style="fill:#C53F3F"></path><path d="M109,187s13.31,8,26.48,36.69c0,0,5-29.94-5-39.55,0,0,6-.74,13.18,6.73l-5.3,4.22,8.2,6.6-10.28,25.27s-12.42-14.67-24.54-21.42l4.2-6.49-11.52-6.33A14.23,14.23,0,0,1,109,187Z" style="fill:#263238"></path><path d="M112.83,169.15a39.64,39.64,0,0,1-1.09,17.11,1.08,1.08,0,0,0,.4,1.16,20.91,20.91,0,0,0,14.52,3.22c6.19-.71,5.59-2.6,3.84-4.58a2.54,2.54,0,0,0-.9-.65c-4.55-2-5.14-5.3-4.22-7.47Z" style="fill:#ebb376"></path><path d="M112.83,169.15l12.55,8.79a4.79,4.79,0,0,0,.32,4.32,9.49,9.49,0,0,1-6.76-1.48c-3.21-2.09-4.57-4.87-5.82-8.88C113.06,171,113,170.12,112.83,169.15Z" style="opacity:0.2"></path><path d="M112.09,184.92l14.68,4.19a21.53,21.53,0,0,0,0-5.5l3.67.48a9.08,9.08,0,0,1,2.44,7.79l-5.4-1.34L123,194.38A24.76,24.76,0,0,1,109,187Z" style="fill:#C53F3F"></path><path d="M112.09,184.92l14.68,4.19a21.53,21.53,0,0,0,0-5.5l3.67.48a9.08,9.08,0,0,1,2.44,7.79l-5.4-1.34L123,194.38A24.76,24.76,0,0,1,109,187Z" style="fill:#fff;opacity:0.7000000000000001"></path><path d="M128.36,153.09c2.1,2.18,0,5.28.28,7.53s.82,5.18-2.28,2.25S125.1,150.09,128.36,153.09Z" style="fill:#263238"></path><path d="M108.8,164.3c1.47,7.47.55,8.82,4.88,12.15,6.51,5,16,4.89,16.38-2.93.3-7-.65-19.59-8.43-21.54A10.51,10.51,0,0,0,108.8,164.3Z" style="fill:#ebb376"></path><path d="M110.25,169.3c3.54,1.83,4.32-3,4.06-3.39-1.13-1.56-1.17-2.94-.14-6.12s-6.18-7.68-9.86-4.72c-1.9,1.53-1.41,5.05-.41,8.16C105.4,167.93,107.39,167.82,110.25,169.3Z" style="fill:#263238"></path><path d="M106,169.79a7,7,0,0,0,4,3.22c2.14.61,3-1.52,2.22-3.72-.69-2-2.63-4.68-4.69-4.31S104.9,167.83,106,169.79Z" style="fill:#ebb376"></path><path d="M118,163.85c.11.64.41.65.83.58s.8-.22.69-.86-.54-1.09-1-1S117.91,163.21,118,163.85Z" style="fill:#263238"></path><path d="M126,163.29c.11.64.41.66.83.59s.79-.22.68-.86-.54-1.1-.95-1S125.84,162.65,126,163.29Z" style="fill:#263238"></path><path d="M124.7,163.17a17.64,17.64,0,0,0,2.83,4,2.91,2.91,0,0,1-2.32.73Z" style="fill:#d58745"></path><path d="M116.09,160.44a.33.33,0,0,1-.13-.13.37.37,0,0,1,.13-.52,3.82,3.82,0,0,1,3.48-.33.38.38,0,0,1-.33.69h0a3.07,3.07,0,0,0-2.76.29A.39.39,0,0,1,116.09,160.44Z" style="fill:#263238"></path><path d="M128.81,159a.38.38,0,0,1-.34.11,3,3,0,0,0-2.66.7.37.37,0,0,1-.53,0,.38.38,0,0,1,0-.54,3.77,3.77,0,0,1,3.34-.92.39.39,0,0,1,.31.45A.43.43,0,0,1,128.81,159Z" style="fill:#263238"></path><path d="M127,172.55a.37.37,0,0,1-.29-.14h0c-.07-.09-1.76-2.15-5.91-1a.38.38,0,0,1-.46-.27.37.37,0,0,1,.26-.46c4.66-1.3,6.62,1.16,6.7,1.26a.37.37,0,0,1-.07.53A.39.39,0,0,1,127,172.55Z" style="fill:#263238"></path><path d="M116.63,161.79a5.46,5.46,0,0,1,5.92-.63c1,.53.28,5.64-3,5.48S116,162.49,116.63,161.79Z" style="fill:#263238"></path><path d="M129.64,159.9a3.62,3.62,0,0,0-4.66.84c-.55.74,1.48,5.44,3.9,4.51S130.37,160.41,129.64,159.9Z" style="fill:#263238"></path><path d="M122.29,162.37a.37.37,0,0,1-.27-.12.37.37,0,0,1,0-.52,2.72,2.72,0,0,1,3.62-.37.38.38,0,0,1-.48.58c-1.21-1-2.56.27-2.62.32A.36.36,0,0,1,122.29,162.37Z" style="fill:#263238"></path><path d="M110,164a.38.38,0,0,1-.37-.32.37.37,0,0,1,.31-.42l6.92-1.09a.38.38,0,0,1,.43.31.38.38,0,0,1-.31.43L110.09,164Z" style="fill:#263238"></path><path d="M127.53,155.22s1-4.15-.59-6.63-13.35-3.16-18.79,1-3.56,9.4-3,9.3a45.19,45.19,0,0,1,5.34,1.09s2.28-4.95,3.86-5.94,6.13.89,7.81,1.59,2.38-1.78,2.38-1.78A21.12,21.12,0,0,1,127.53,155.22Z" style="fill:#263238"></path><path d="M198,187.58l7.89-3.13-6.25-8s-6.8,3.7-5.41,7.63Z" style="fill:#ebb376"></path><path d="M209.45,176.39,206.79,174a2.94,2.94,0,0,0-3.81-.15l-3.34,2.62,6.25,8,3.7-3.86A2.94,2.94,0,0,0,209.45,176.39Z" style="fill:#ebb376"></path><path d="M192.08,183.15l1.46-1.26,6.19,6.17-1.74,2S192.85,186.5,192.08,183.15Z" style="fill:#C53F3F"></path><path d="M192.08,183.15l1.46-1.26,6.19,6.17-1.74,2S192.85,186.5,192.08,183.15Z" style="fill:#fff;opacity:0.7000000000000001"></path><rect x="201.35" y="141.01" width="3.39" height="57.73" style="fill:#263238"></rect><circle cx="203.02" cy="128.8" r="26.77" transform="translate(31.02 296.8) rotate(-76.72)" style="fill:#C53F3F"></circle><rect x="180.64" y="121.61" width="44.75" height="14.39" style="fill:#fff"></rect><path d="M184.37,132.62l.75-1.66a5.56,5.56,0,0,0,3.14,1c1.31,0,1.84-.44,1.84-1,0-1.79-5.54-.56-5.54-4.1,0-1.61,1.31-3,4-3a6.49,6.49,0,0,1,3.31.84l-.68,1.67a5.43,5.43,0,0,0-2.64-.74c-1.31,0-1.81.49-1.81,1.08,0,1.76,5.53.55,5.53,4,0,1.59-1.31,2.95-4,2.95A6.81,6.81,0,0,1,184.37,132.62Z" style="fill:#C53F3F"></path><path d="M195.63,125.84h-3V124h8.29v1.8h-3v7.72h-2.21Z" style="fill:#C53F3F"></path><path d="M201.33,128.8a5.22,5.22,0,1,1,5.21,4.92A4.93,4.93,0,0,1,201.33,128.8Zm8.19,0a3,3,0,1,0-3,3A2.9,2.9,0,0,0,209.52,128.8Z" style="fill:#C53F3F"></path><path d="M221.67,127.5c0,2.12-1.59,3.44-4.14,3.44h-1.91v2.62h-2.21V124h4.12C220.08,124,221.67,125.36,221.67,127.5Zm-2.23,0c0-1-.68-1.66-2-1.66h-1.79v3.3h1.79C218.76,129.14,219.44,128.53,219.44,127.5Z" style="fill:#C53F3F"></path><path d="M203,153.41a24.61,24.61,0,1,1,24.61-24.61A24.64,24.64,0,0,1,203,153.41Zm0-46.22a21.61,21.61,0,1,0,21.61,21.61A21.64,21.64,0,0,0,203,107.19Z" style="fill:#fff"></path></g></svg>
